<svg width="191" height="63" viewBox="0 0 191 63" fill="none" xmlns="http://www.w3.org/2000/svg">
<g filter="url(#filter0_d_209_605)">
<path d="M178 1H13C8.58172 1 5 4.58171 5 8.99999V39.2432C5 43.6615 8.58172 47.2432 13 47.2432H48.882C50.7516 47.2432 52.5621 47.898 53.9992 49.0939L58.129 52.5305C61.2055 55.0906 65.7006 54.9832 68.6513 52.279L71.8523 49.3454C73.3276 47.9933 75.2562 47.2432 77.2574 47.2432H178C182.418 47.2432 186 43.6615 186 39.2432V24.1216V9C186 4.58172 182.418 1 178 1Z" fill="white"/>
<path d="M178 1H13C8.58172 1 5 4.58171 5 8.99999V39.2432C5 43.6615 8.58172 47.2432 13 47.2432H48.882C50.7516 47.2432 52.5621 47.898 53.9992 49.0939L58.129 52.5305C61.2055 55.0906 65.7006 54.9832 68.6513 52.279L71.8523 49.3454C73.3276 47.9933 75.2562 47.2432 77.2574 47.2432H178C182.418 47.2432 186 43.6615 186 39.2432V24.1216V9C186 4.58172 182.418 1 178 1Z" stroke="#0F3158"/>
</g>
<defs>
<filter id="filter0_d_209_605" x="0.5" y="0.5" width="190" height="62.3811" filterUnits="userSpaceOnUse" color-interpolation-filters="sRGB">
<feFlood flood-opacity="0" result="BackgroundImageFix"/>
<feColorMatrix in="SourceAlpha" type="matrix" values="0 0 0 0 0 0 0 0 0 0 0 0 0 0 0 0 0 0 127 0" result="hardAlpha"/>
<feOffset dy="4"/>
<feGaussianBlur stdDeviation="2"/>
<feComposite in2="hardAlpha" operator="out"/>
<feColorMatrix type="matrix" values="0 0 0 0 0 0 0 0 0 0 0 0 0 0 0 0 0 0 0.25 0"/>
<feBlend mode="normal" in2="BackgroundImageFix" result="effect1_dropShadow_209_605"/>
<feBlend mode="normal" in="SourceGraphic" in2="effect1_dropShadow_209_605" result="shape"/>
</filter>
</defs>
</svg>